<?xml version="1.0" standalone="no"?>
<!DOCTYPE svg PUBLIC "-//W3C//DTD SVG 20010904//EN"
 "http://www.w3.org/TR/2001/REC-SVG-20010904/DTD/svg10.dtd">
<svg version="1.0" xmlns="http://www.w3.org/2000/svg"
 width="1856.000000pt" height="1856.000000pt" viewBox="0 0 1856.000000 1856.000000"
 preserveAspectRatio="xMidYMid meet">
<metadata>
Created by potrace 1.14, written by Peter Selinger 2001-2017
</metadata>
<g transform="translate(0.000000,1856.000000) scale(0.100000,-0.100000)"
fill="#000000" stroke="none">
<path d="M2739 14071 c-88 -27 -162 -109 -174 -192 -4 -24 -8 -45 -10 -47 -7
-7 32 -130 46 -146 38 -46 68 -70 109 -89 45 -21 47 -21 1450 -22 1403 -2
1405 -2 1445 -23 22 -11 52 -32 68 -47 35 -34 80 -122 74 -146 -3 -11 -2 -19
2 -19 12 0 -5 -94 -23 -128 -24 -46 -76 -97 -121 -118 -38 -18 -79 -19 -755
-24 -655 -5 -718 -6 -750 -23 -38 -19 -112 -86 -117 -107 -1 -3 -7 -18 -14
-35 -12 -31 -15 -113 -6 -152 17 -69 72 -132 147 -166 45 -21 54 -21 1345 -22
1062 -1 1305 -4 1330 -15 17 -7 33 -14 36 -14 3 -1 21 -14 41 -29 33 -26 88
-107 72 -107 -3 0 -1 -6 6 -14 18 -23 10 -134 -14 -181 -28 -55 -90 -111 -140
-128 -23 -8 -76 -14 -124 -13 -45 1 -82 -2 -82 -6 0 -4 -7 -5 -15 -2 -24 9
-305 10 -305 1 0 -5 -5 -5 -11 -1 -16 10 -269 11 -269 1 0 -5 -5 -5 -11 -1
-16 10 -189 11 -189 1 0 -5 -5 -5 -11 -1 -16 10 -269 11 -269 1 0 -5 -5 -5
-11 -1 -15 9 -189 11 -189 2 0 -4 -7 -5 -14 -2 -24 9 -266 10 -266 1 0 -5 -5
-5 -11 -1 -16 10 -189 11 -189 1 0 -5 -5 -5 -11 -1 -16 10 -269 11 -269 1 0
-5 -5 -5 -11 -1 -16 10 -189 11 -189 1 0 -5 -5 -5 -11 -1 -16 10 -269 11 -269
1 0 -5 -5 -5 -11 -1 -16 10 -189 11 -189 1 0 -5 -5 -5 -11 -1 -16 10 -269 11
-269 1 0 -5 -5 -5 -11 -1 -16 10 -189 11 -189 1 0 -5 -5 -5 -11 -1 -16 10
-269 11 -269 1 0 -5 -5 -5 -11 -1 -16 10 -189 11 -189 1 0 -5 -5 -5 -11 -1
-16 10 -269 11 -269 1 0 -5 -5 -5 -12 -1 -39 24 -173 -16 -228 -68 -25 -24
-66 -88 -56 -88 3 0 -1 -15 -8 -32 -17 -46 -12 -105 16 -168 17 -39 85 -110
105 -110 7 0 13 -5 13 -10 0 -6 3 -9 8 -8 4 1 23 -2 42 -7 19 -4 647 -9 1395
-9 l1360 -1 41 -22 c74 -39 128 -109 140 -181 3 -15 7 -33 9 -39 2 -7 1 -13
-3 -13 -4 0 -7 -12 -6 -27 1 -44 -27 -103 -73 -148 -81 -81 56 -75 -1786 -75
-1584 1 -1639 0 -1680 -18 -94 -42 -152 -131 -150 -231 0 -31 3 -63 5 -71 24
-73 75 -131 143 -161 l50 -22 2100 -2 c1155 -1 2111 -5 2124 -8 13 -4 41 -18
62 -31 141 -93 154 -285 28 -401 -24 -22 -46 -39 -49 -39 -3 1 -16 -3 -30 -9
-18 -8 -830 -12 -2806 -12 l-2780 -2 -50 -24 c-57 -28 -101 -73 -130 -138 -15
-32 -19 -50 -12 -58 7 -9 7 -13 0 -13 -6 0 -9 -8 -7 -19 2 -10 6 -35 9 -56 13
-77 88 -166 149 -174 4 0 20 -7 35 -14 17 -9 37 -11 54 -6 16 4 28 4 28 1 0
-4 34 -7 75 -7 41 0 75 4 75 8 0 4 8 4 18 -1 17 -8 115 -7 139 2 7 3 13 2 13
-2 0 -4 34 -7 75 -7 41 0 75 4 75 8 0 5 5 5 11 1 15 -9 2693 -9 2708 0 6 4 11
4 11 -1 0 -4 34 -8 75 -8 41 0 75 4 75 8 0 4 8 4 18 -1 17 -8 115 -7 139 2 7
3 13 2 13 -2 0 -4 34 -7 75 -7 41 0 75 4 75 8 0 4 8 4 18 -1 17 -8 115 -7 139
2 7 3 13 2 13 -2 0 -4 34 -7 75 -7 41 0 75 4 75 8 0 4 8 4 18 -1 17 -8 115 -7
139 2 7 3 13 2 13 -2 0 -4 34 -7 75 -7 41 0 75 4 75 8 0 5 5 5 11 1 6 -4 116
-8 243 -9 127 -1 241 -5 253 -8 71 -19 134 -78 162 -154 49 -128 -16 -274
-145 -322 -47 -18 -130 -19 -2179 -19 -1172 -1 -2140 -3 -2151 -6 -73 -16
-156 -90 -181 -160 -27 -79 -10 -185 37 -236 15 -17 25 -30 22 -30 -16 0 67
-48 102 -60 31 -10 413 -13 1840 -14 l1801 -1 40 -22 c47 -25 117 -92 109
-104 -3 -5 -1 -9 5 -9 13 0 32 -97 27 -143 -5 -49 -25 -96 -53 -127 -13 -14
-23 -28 -23 -31 0 -3 -24 -19 -52 -35 l-53 -29 -2300 -1 -2300 -1 -51 -26
c-98 -50 -152 -149 -140 -255 4 -31 11 -61 16 -67 6 -7 7 -15 3 -18 -3 -4 -2
-7 4 -7 6 0 16 -13 22 -28 14 -33 99 -88 151 -98 19 -3 1423 -6 3120 -7 3015
0 3085 0 3130 -19 55 -23 120 -81 120 -108 0 -5 4 -10 8 -10 21 0 34 -121 20
-180 -16 -66 -79 -138 -147 -169 -33 -14 -227 -16 -2051 -18 -1108 -1 -2022
-4 -2030 -6 -36 -8 -99 -48 -127 -80 -65 -74 -81 -194 -38 -277 20 -38 104
-125 112 -116 4 3 11 1 18 -4 6 -5 22 -12 36 -14 13 -3 24 -5 24 -6 0 0 761
-1 1692 -1 1128 -1 1706 -4 1733 -11 27 -7 58 -28 93 -62 28 -28 53 -55 54
-61 1 -5 9 -28 17 -50 38 -106 -22 -240 -130 -295 -42 -20 -64 -24 -151 -24
-62 -1 -103 -5 -103 -11 0 -6 -3 -6 -8 0 -10 14 -944 14 -954 0 -5 -6 -8 -6
-8 0 0 7 -165 10 -475 10 -310 0 -475 -3 -475 -10 0 -6 -3 -6 -8 0 -10 14
-944 14 -954 0 -5 -6 -8 -6 -8 0 0 12 -1087 13 -1140 1 -77 -18 -140 -71 -171
-144 -21 -48 -31 -129 -18 -147 4 -5 9 -21 11 -35 1 -14 8 -30 13 -37 6 -6 21
-28 35 -47 14 -20 30 -36 36 -36 6 0 17 -6 23 -14 26 -31 98 -35 622 -36 288
0 529 0 534 1 6 0 30 0 55 -1 50 -3 90 -3 105 -1 18 3 730 0 763 -3 18 -1 35
1 38 6 3 5 9 6 13 4 7 -5 124 -10 146 -7 8 1 648 0 760 -1 17 0 35 1 40 2 10
2 67 0 123 -4 18 -1 35 1 38 6 3 5 10 5 16 2 6 -4 27 -8 47 -9 20 -2 55 -13
76 -25 106 -59 155 -166 129 -283 -13 -59 -88 -157 -120 -157 -8 0 -14 -4 -14
-8 0 -25 -156 -28 -1807 -27 -953 0 -1733 -3 -1733 -7 0 -3 -8 -5 -17 -4 -39
6 -143 -78 -166 -134 -23 -56 -28 -139 -12 -185 26 -74 91 -139 164 -163 26
-9 905 -11 3550 -9 1934 1 3525 5 3536 9 11 3 34 9 50 13 96 23 184 61 322
138 98 56 230 167 338 288 38 42 124 166 138 199 8 16 37 65 63 105 9 14 12
25 8 25 -5 0 -4 4 1 8 10 6 177 299 363 632 59 106 162 288 181 320 11 19 29
51 39 70 10 19 28 52 40 73 12 20 30 52 40 70 20 36 127 225 153 272 10 17 26
46 36 65 11 19 38 68 61 108 23 41 42 78 42 83 0 5 3 9 8 9 4 0 12 10 18 23
23 48 98 182 104 187 4 3 11 16 15 30 4 14 11 27 14 30 4 3 32 50 63 105 30
55 65 116 77 135 11 19 25 44 30 55 5 11 32 60 60 108 28 49 51 93 51 98 0 5
5 9 12 9 6 0 8 3 5 6 -4 4 2 19 12 33 10 14 33 53 51 86 18 33 42 76 53 95 11
19 34 60 50 90 17 30 35 58 41 62 6 4 7 8 2 8 -5 0 -2 8 7 18 10 10 14 22 10
25 -3 4 -1 7 5 7 7 0 12 4 12 9 0 4 22 46 48 92 27 46 62 109 79 139 50 92 58
105 68 112 6 4 6 8 2 8 -4 0 8 25 28 55 19 30 32 55 28 55 -3 0 1 8 9 18 22
25 83 136 80 145 -1 4 2 7 7 7 5 0 13 9 16 21 6 18 79 149 105 189 6 8 18 31
26 50 9 19 19 37 23 40 3 3 11 14 17 25 6 11 28 52 49 90 21 39 41 72 44 75 3
3 7 12 9 20 2 8 9 22 16 30 6 8 18 29 26 45 8 17 21 36 28 43 6 7 12 17 12 21
0 5 30 60 66 122 36 63 86 152 112 199 25 47 48 87 51 90 3 3 14 21 23 40 18
37 44 83 169 303 44 75 79 142 79 147 0 6 4 10 8 10 5 0 14 16 22 35 8 19 16
35 19 35 3 0 15 20 26 45 11 25 22 45 26 45 3 0 14 20 25 45 10 25 22 45 26
45 4 0 8 4 8 8 0 5 27 55 59 113 33 57 73 130 90 161 17 32 42 76 56 98 14 22
25 42 25 45 0 2 17 33 38 67 21 35 46 79 56 98 37 74 48 91 52 87 3 -2 5 -215
5 -472 l0 -469 68 70 c61 63 161 155 208 190 10 8 36 28 58 45 22 18 81 58
130 90 50 33 96 64 103 69 6 6 12 8 12 4 0 -4 8 0 18 8 36 32 298 150 326 147
5 0 12 3 15 8 5 7 172 66 191 68 3 0 10 3 15 6 6 4 26 10 45 15 49 11 49 11
55 14 3 1 8 3 13 4 4 1 16 5 27 9 11 3 34 9 50 12 38 8 60 13 60 15 0 2 34 9
67 14 15 3 31 7 35 9 5 3 28 8 53 12 25 4 48 8 51 11 4 2 23 6 43 8 19 3 61
10 93 15 32 6 76 12 98 15 22 3 63 8 90 12 100 13 266 25 395 29 47 2 87 3 90
4 4 1 3 1898 -1 2315 -1 78 -64 203 -151 297 -58 64 -196 147 -271 164 -12 3
-42 9 -67 14 -28 7 -456 9 -1130 8 -964 -2 -1091 -4 -1135 -19 -27 -8 -57 -17
-65 -19 -8 -2 -17 -7 -20 -10 -3 -3 -25 -13 -50 -23 -55 -21 -230 -125 -230
-136 0 -5 -8 -11 -18 -14 -9 -3 -38 -25 -64 -48 -25 -24 -57 -52 -70 -64 -82
-71 -207 -238 -274 -364 -16 -30 -32 -56 -36 -58 -5 -2 -8 -8 -8 -12 0 -5 -14
-33 -31 -62 -17 -29 -47 -82 -66 -118 -20 -36 -41 -72 -47 -80 -7 -8 -21 -33
-31 -55 -11 -22 -23 -42 -26 -45 -3 -3 -23 -36 -44 -75 -32 -60 -84 -153 -115
-205 -15 -24 -127 -221 -152 -265 -53 -95 -160 -281 -169 -295 -5 -8 -15 -26
-21 -40 -7 -14 -26 -47 -43 -75 -16 -27 -37 -63 -45 -80 -8 -16 -21 -36 -27
-43 -7 -7 -13 -18 -13 -24 0 -5 -8 -22 -18 -36 -11 -15 -33 -52 -49 -82 -17
-30 -49 -87 -72 -127 -22 -39 -50 -89 -62 -110 -12 -21 -67 -119 -124 -218
-56 -99 -112 -197 -124 -217 -11 -21 -31 -55 -42 -75 -12 -21 -32 -56 -45 -78
-12 -22 -56 -98 -98 -170 -41 -71 -87 -155 -103 -185 -15 -30 -31 -57 -34 -60
-5 -5 -36 -59 -85 -150 -11 -19 -22 -37 -25 -40 -3 -3 -12 -20 -20 -37 -8 -18
-17 -33 -21 -33 -5 0 -8 -5 -8 -11 0 -6 -20 -45 -45 -86 -25 -40 -45 -76 -45
-79 0 -2 -18 -34 -40 -70 -22 -36 -40 -68 -40 -69 0 -2 -15 -30 -34 -62 -19
-32 -34 -62 -34 -67 0 -5 -5 -12 -10 -15 -5 -3 -21 -28 -36 -56 -15 -27 -36
-66 -47 -85 -12 -19 -33 -56 -48 -83 -14 -26 -35 -63 -46 -81 -11 -19 -42 -74
-70 -122 -27 -49 -55 -98 -62 -109 -7 -11 -15 -26 -19 -34 -4 -8 -45 -79 -91
-159 -46 -79 -83 -146 -83 -148 0 -3 -15 -29 -34 -59 -19 -29 -32 -56 -29 -59
4 -3 1 -6 -5 -6 -7 0 -12 -7 -12 -15 0 -8 -5 -15 -11 -15 -5 0 -8 -4 -5 -9 3
-5 -1 -14 -9 -21 -8 -7 -15 -18 -15 -26 0 -7 -6 -19 -12 -26 -7 -7 -23 -31
-34 -53 -12 -22 -46 -82 -75 -134 -30 -51 -72 -125 -93 -165 -22 -39 -42 -73
-45 -76 -3 -3 -13 -18 -21 -35 -8 -16 -19 -33 -25 -37 -5 -4 -6 -8 -2 -8 4 0
-4 -17 -18 -37 -14 -21 -25 -43 -25 -50 0 -7 -4 -13 -8 -13 -4 0 -18 -21 -30
-46 -12 -25 -27 -51 -33 -57 -6 -7 -23 -35 -37 -64 -27 -52 -105 -190 -129
-228 -7 -11 -16 -28 -19 -37 -3 -10 -11 -18 -16 -18 -5 0 -7 -4 -3 -9 3 -5 -2
-16 -10 -24 -8 -9 -15 -18 -15 -21 0 -3 -20 -40 -45 -82 -25 -41 -45 -79 -45
-84 0 -4 -7 -13 -15 -20 -9 -7 -13 -15 -10 -18 3 -3 -1 -12 -8 -21 -12 -14
-64 -102 -127 -216 -61 -110 -163 -286 -169 -289 -3 -2 -6 1500 -7 3337 0
1838 -3 3365 -6 3392 -17 143 -112 308 -228 396 -25 19 -47 36 -50 39 -5 5
-87 45 -125 61 -83 34 -57 34 -2380 36 -1254 1 -2292 -2 -2306 -6z m3396
-2535 c97 -41 163 -152 150 -256 -4 -30 -7 -61 -8 -67 0 -7 -4 -13 -8 -13 -4
0 -10 -8 -13 -17 -12 -36 -65 -84 -121 -109 -47 -22 -67 -26 -114 -21 -55 5
-131 33 -131 49 0 4 -6 8 -12 8 -14 1 -35 27 -69 86 -28 49 -30 150 -4 208 18
43 75 103 116 124 61 32 149 35 214 8z m84 -3045 c50 -25 91 -61 91 -78 0 -7
4 -13 8 -13 4 0 14 -16 21 -37 37 -102 16 -200 -60 -274 -28 -27 -55 -47 -60
-44 -5 4 -9 2 -9 -3 0 -19 -94 -31 -158 -19 -65 11 -162 85 -162 123 0 8 -4
14 -8 14 -14 0 -31 83 -26 129 10 102 81 191 174 220 50 15 144 6 189 -18z
m-513 -3025 c73 -38 132 -124 142 -208 10 -87 -56 -203 -138 -244 -126 -63
-294 -3 -347 124 -16 38 -25 139 -15 157 4 6 8 18 9 27 8 48 86 129 150 153
47 18 156 13 199 -9z"/>
<path d="M15256 11043 c-3 -4 -43 -8 -89 -9 -179 -5 -385 -20 -532 -39 -22 -2
-60 -7 -85 -10 -25 -2 -56 -7 -70 -10 -14 -3 -41 -8 -60 -11 -19 -3 -66 -12
-105 -20 -38 -9 -83 -18 -100 -21 -39 -7 -47 -9 -65 -16 -8 -3 -35 -10 -60
-16 -25 -7 -54 -14 -65 -17 -11 -3 -31 -7 -45 -10 -13 -3 -27 -10 -31 -15 -3
-6 -9 -10 -13 -9 -10 2 -68 -12 -86 -20 -8 -5 -60 -25 -115 -46 -55 -21 -101
-42 -103 -46 -2 -4 -9 -8 -15 -8 -31 0 -329 -168 -391 -220 -11 -10 -55 -45
-96 -78 -86 -69 -210 -189 -210 -203 0 -6 -4 -8 -9 -4 -5 3 -12 -3 -15 -12 -3
-10 -22 -35 -41 -55 -19 -20 -35 -41 -35 -47 0 -6 -4 -11 -8 -11 -8 0 -152
-213 -152 -225 0 -3 -11 -22 -24 -43 -12 -20 -24 -41 -26 -47 -1 -5 -10 -26
-20 -46 -45 -87 -125 -301 -145 -388 -3 -9 -15 -58 -29 -108 -13 -51 -22 -93
-19 -93 3 0 0 -7 -7 -15 -7 -8 -10 -21 -7 -29 3 -8 2 -16 -3 -18 -4 -2 -10
-19 -13 -38 -4 -19 -11 -53 -17 -75 -6 -22 -13 -51 -16 -65 -3 -14 -7 -33 -10
-42 -3 -9 -7 -25 -9 -35 -2 -10 -16 -65 -30 -123 -15 -58 -28 -112 -30 -120
-2 -8 -13 -51 -24 -95 -12 -44 -24 -91 -26 -105 -5 -32 -3 -23 -70 -290 -68
-272 -59 -237 -85 -345 -11 -49 -24 -97 -27 -105 -3 -8 -6 -18 -5 -21 0 -3 -4
-23 -9 -45 -6 -21 -14 -55 -19 -74 -5 -19 -23 -91 -40 -160 -17 -69 -38 -154
-46 -190 -21 -91 -22 -95 -24 -95 -1 0 -3 -11 -6 -23 -2 -13 -18 -78 -35 -145
-32 -125 -37 -146 -45 -184 -2 -12 -9 -34 -14 -48 -5 -14 -8 -25 -5 -25 2 0
-1 -15 -6 -32 -6 -18 -13 -44 -16 -58 -2 -14 -6 -29 -7 -35 -1 -5 -5 -19 -9
-30 -3 -11 -8 -31 -11 -45 -3 -14 -12 -54 -21 -90 -9 -36 -18 -73 -20 -83 -2
-10 -7 -27 -10 -37 -3 -10 -7 -27 -9 -37 -2 -10 -9 -38 -16 -63 -7 -25 -14
-56 -16 -70 -3 -14 -7 -32 -10 -40 -3 -8 -8 -26 -11 -40 -8 -42 -11 -55 -13
-57 -2 -2 -3 -6 -4 -10 -10 -42 -17 -72 -21 -92 -2 -14 -8 -28 -12 -32 -5 -4
-104 -9 -222 -10 -195 -1 -219 -4 -277 -25 -139 -50 -238 -160 -275 -304 -7
-28 -11 -138 -12 -285 0 -239 6 -342 23 -374 5 -9 19 -38 31 -65 21 -45 105
-146 123 -146 4 0 22 -11 40 -25 18 -14 40 -25 48 -25 8 0 18 -3 22 -7 27 -27
206 -29 3486 -27 1862 1 3392 4 3400 7 8 2 30 8 48 12 18 4 35 12 38 16 3 5
10 7 15 4 5 -4 9 -3 9 2 0 4 12 14 28 21 28 13 110 82 97 82 -5 0 1 8 11 17
38 35 79 120 91 191 7 47 8 5795 0 5842 -22 127 -92 228 -206 297 -64 38 -107
52 -185 57 -30 2 -60 7 -65 11 -6 3 -11 3 -11 -2 0 -7 -34 -7 -135 -2 -5 0
-22 -2 -37 -4 -16 -2 -28 0 -28 6 0 6 -5 6 -12 1 -16 -11 -39 -11 -55 -1 -7 5
-13 4 -13 -1 0 -10 -30 -9 -48 2 -6 4 -12 3 -12 -2 0 -6 -13 -7 -33 -3 -18 5
-41 5 -52 1 -11 -4 -28 -3 -37 2 -10 5 -18 5 -18 1 0 -4 -28 -7 -62 -5 -35 1
-69 2 -75 2 -31 0 -44 0 -55 1 -7 0 -25 -2 -40 -4 -16 -2 -28 0 -28 5 0 5 -5
6 -12 2 -14 -9 -78 -12 -78 -4 0 7 -80 3 -87 -4 -3 -3 -14 -1 -24 5 -11 5 -19
6 -19 2 0 -7 -35 -7 -135 -2 -5 0 -22 -2 -37 -4 -16 -2 -28 0 -28 6 0 6 -5 6
-12 1 -16 -11 -39 -11 -55 -1 -7 5 -13 4 -13 -1 0 -10 -30 -9 -48 2 -6 4 -12
3 -12 -2 0 -6 -13 -7 -33 -3 -18 5 -41 5 -52 1 -11 -4 -28 -3 -37 2 -10 5 -18
5 -18 1 0 -4 -28 -7 -62 -5 -35 1 -69 2 -75 2 -31 0 -44 0 -55 1 -7 0 -25 -2
-40 -4 -16 -2 -28 0 -28 5 0 5 -5 6 -12 2 -14 -9 -78 -12 -78 -4 0 7 -80 3
-87 -4 -3 -3 -14 -1 -24 5 -11 5 -19 6 -19 2 0 -7 -35 -7 -135 -2 -5 0 -22 -2
-37 -4 -16 -2 -28 0 -28 6 0 6 -5 6 -12 1 -16 -11 -39 -11 -55 -1 -7 5 -13 4
-13 -1 0 -10 -30 -9 -48 2 -6 4 -12 3 -12 -3 0 -6 -11 -6 -30 -1 -16 5 -30 5
-30 1 0 -9 -54 -6 -69 4 -6 3 -11 3 -11 -2 0 -9 -132 -9 -147 0 -6 4 -13 3
-17 0z m1304 -1302 c3 -1 6 -894 6 -1985 l2 -1985 -1619 0 c-972 0 -1619 4
-1619 10 0 9 45 184 54 209 3 8 7 29 10 45 2 17 38 163 80 326 41 163 77 307
80 320 3 13 17 69 31 124 14 55 27 107 30 115 2 8 17 71 35 140 17 69 38 154
46 190 7 36 17 72 20 80 4 8 8 22 9 30 1 8 21 89 44 180 23 91 43 173 44 183
1 9 5 17 10 17 4 0 6 4 3 9 -4 5 -2 20 3 34 5 13 12 37 15 53 2 16 32 136 66
268 33 131 62 248 65 260 2 11 4 22 6 24 2 2 3 6 13 52 4 19 13 58 21 85 8 28
35 133 60 235 25 102 51 197 56 212 6 15 10 30 9 33 -1 3 6 17 14 31 9 13 14
24 12 24 -9 0 66 144 109 210 42 65 129 168 170 201 11 9 30 25 42 35 11 11
31 26 43 34 12 8 36 25 53 38 17 12 37 22 44 22 7 0 13 4 13 9 0 5 10 12 23
16 12 4 24 8 27 9 3 1 15 7 26 14 21 11 100 40 133 48 9 2 36 8 61 15 66 16
83 19 146 23 31 3 57 6 59 8 3 3 1431 2 1445 -1z"/>
</g>
</svg>
