<svg width="54" height="48" viewBox="0 0 54 48" fill="none" xmlns="http://www.w3.org/2000/svg">
<path fill-rule="evenodd" clip-rule="evenodd" d="M13.1121 11.4191L13.0651 11.3749L13.0209 11.3279C12.869 11.1658 12.6185 11 12.02 11C11.4247 11 11.1226 11.1659 10.9142 11.3742C10.8937 11.3947 10.6 11.7662 10.6 13.14V35.82C10.6 37.0322 10.8288 37.5114 10.9295 37.6548C11.1339 37.8214 11.4485 37.96 12.02 37.96C12.6568 37.96 12.9222 37.7894 13.0658 37.6458C13.1445 37.5671 13.44 37.1492 13.44 35.82V13.14C13.44 11.7927 13.1369 11.4423 13.1121 11.4191ZM9.5 39.06C8.9 38.42 8.6 37.34 8.6 35.82V13.14C8.6 11.62 8.9 10.56 9.5 9.96C10.14 9.32 10.98 9 12.02 9C13.06 9 13.88 9.32 14.48 9.96C15.12 10.56 15.44 11.62 15.44 13.14V35.82C15.44 37.34 15.12 38.42 14.48 39.06C13.88 39.66 13.06 39.96 12.02 39.96C10.98 39.96 10.14 39.66 9.5 39.06ZM20.9136 44.6338L20.906 44.6417C18.7039 46.9462 15.6334 47.96 12.02 47.96C8.40656 47.96 5.33606 46.9462 3.13402 44.6417L3.12644 44.6338L3.11895 44.6258C0.946357 42.3016 0 39.1265 0 35.4V13.56C0 9.84103 0.942956 6.67628 3.12645 4.38621C5.32517 2.0392 8.398 1 12.02 1C15.642 1 18.7148 2.03919 20.9135 4.38616C23.097 6.67624 24.04 9.841 24.04 13.56V35.4C24.04 39.1265 23.0936 42.3016 20.9211 44.6258L20.9136 44.6338ZM19.46 5.76C17.74 3.92 15.26 3 12.02 3C8.78 3 6.3 3.92 4.58 5.76C2.86 7.56 2 10.16 2 13.56V35.4C2 38.8 2.86 41.42 4.58 43.26C6.3 45.06 8.78 45.96 12.02 45.96C15.26 45.96 17.74 45.06 19.46 43.26C21.18 41.42 22.04 38.8 22.04 35.4V13.56C22.04 10.16 21.18 7.56 19.46 5.76ZM33.4091 6.76H35.4091C36.5669 6.76 37.3599 6.63025 37.8684 6.45228L37.8825 6.44735L37.8966 6.44263C38.5332 6.23044 38.9462 5.97618 39.2125 5.73039C39.5528 5.41626 39.8271 5.05175 40.0402 4.62557C40.3154 4.07515 40.5598 3.48314 40.7717 2.84754L41.2275 1.48H49.1091V47.48H38.5091V15.44H33.4091V6.76ZM40.5091 13.44V45.48H47.1091V3.48H42.6691C42.4291 4.2 42.1491 4.88 41.8291 5.52C41.5091 6.16 41.0891 6.72 40.5691 7.2C40.0491 7.68 39.3691 8.06 38.5291 8.34C37.7291 8.62 36.6891 8.76 35.4091 8.76V13.44H40.5091Z" fill="url(#paint0_linear_5250_7)"/>
<defs>
<linearGradient id="paint0_linear_5250_7" x1="29.14" y1="0.479996" x2="29.14" y2="48.48" gradientUnits="userSpaceOnUse">
<stop offset="0" stop-color="#F2C94C"/>
<stop offset="1" stop-color="#F2C94C" stop-opacity="0.5"/>
</linearGradient>
</defs>
</svg>
